<?xml version="1.0" encoding="UTF-8"?>
<svg xmlns="http://www.w3.org/2000/svg" xmlns:xlink="http://www.w3.org/1999/xlink" id="Layer_1" data-name="Layer 1" version="1.1" viewBox="0 0 140 59">
  <defs>
    <style>
      .cls-1 {
        fill: #350f15;
      }

      .cls-1, .cls-2, .cls-3 {
        stroke-width: 0px;
      }

      .cls-2 {
        fill: #c82742;
      }

      .cls-3 {
        fill: none;
      }

      .cls-4 {
        clip-path: url(#clippath-1);
      }

      .cls-5 {
        clip-path: url(#clippath);
      }
    </style>
    <clipPath id="clippath">
      <rect class="cls-3" x="1" y="10.9" width="138" height="37.2"></rect>
    </clipPath>
    <clipPath id="clippath-1">
      <rect class="cls-3" x="1" y="10.9" width="138" height="37.2"></rect>
    </clipPath>
  </defs>
  <g class="cls-5">
    <g class="cls-4">
      <path class="cls-2" d="M19.64,38.28c-4.31,0-7.95-2.79-8.99-6.55-5.74,3.14-9.64,9.26-9.64,16.31v.06h18.8c10.16,0,18.4-8.3,18.4-18.54v-.06h-9.27s0,.02,0,.02c0,4.83-4.17,8.76-9.29,8.76"></path>
      <path class="cls-2" d="M19.62,20.76c4.29,0,7.91,2.75,8.97,6.48,5.72-3.14,9.6-9.26,9.6-16.29v-.06h-18.8C9.24,10.9,1,19.2,1,29.44v.06h9.33c.01-4.82,4.17-8.74,9.29-8.74"></path>
      <path class="cls-2" d="M53.57,27.25c-2.5,0-5.52.34-7.74,2.54-1.3,1.29-2.5,3.49-2.5,6.94,0,3.79,1.51,5.75,2.36,6.6,2.19,2.17,5.35,2.4,8.09,2.4,2.43,0,4.18-.14,5.59-.64,2.19-.78,3.87-2.61,4.15-5.25h-4.11c-.1.78-.41,1.83-1.75,2.57-1.13.61-2.54.68-3.91.68-1.64,0-3.5-.1-4.83-1.49-1.23-1.29-1.4-2.98-1.4-4.1v-.2h16.28v-.51c0-2.27-.24-4.91-2.26-6.97-2.16-2.2-5.48-2.57-7.95-2.57M47.54,35c.1-1.69.89-3.01,1.75-3.76,1.37-1.18,3.19-1.35,4.28-1.35.75,0,2.98.07,4.39,1.25.93.78,1.61,2.27,1.64,3.86h-12.06Z"></path>
      <polygon class="cls-2" points="80.89 30.54 80.89 27.95 65.44 27.95 65.44 30.58 76.75 30.58 64.65 42.66 64.65 45.09 81.41 45.09 81.41 42.45 68.97 42.45 80.89 30.54"></polygon>
      <path class="cls-1" d="M91.72,42.31c-.45-.48-.48-1.43-.48-1.98v-9.74h4.11v-2.64h-4.11v-3.83h-3.97v3.83h-3.77v2.64h3.76v10.52c0,.99.08,2.56,1.07,3.52,1.03.99,2.95,1.09,3.91,1.09,1.1,0,2.06-.19,3.19-.6v-2.61c-.62.2-1.4.34-1.99.34-.55,0-1.34-.14-1.71-.55"></path>
      <path class="cls-1" d="M107,27.25c-2.5,0-5.52.34-7.74,2.54-1.3,1.29-2.5,3.49-2.5,6.94,0,3.79,1.51,5.75,2.36,6.6,2.19,2.17,5.35,2.4,8.09,2.4,2.43,0,4.18-.14,5.59-.64,2.19-.78,3.87-2.61,4.15-5.25h-4.11c-.1.78-.41,1.83-1.75,2.57-1.13.61-2.54.68-3.91.68-1.64,0-3.5-.1-4.83-1.49-1.23-1.29-1.4-2.98-1.4-4.1v-.2h16.28v-.51c0-2.27-.24-4.91-2.26-6.97-2.16-2.2-5.48-2.57-7.95-2.57M100.97,35.03c.1-1.69.89-3,1.75-3.75,1.37-1.18,3.19-1.35,4.28-1.35.75,0,2.98.07,4.39,1.25.93.78,1.61,2.26,1.64,3.85h-12.06Z"></path>
      <path class="cls-1" d="M134.96,38.86c.03,1.15-.41,2.27-1.1,2.98-1.13,1.15-2.81,1.25-4.15,1.25-1.58,0-3.26-.24-4.52-1.46-1.54-1.46-1.68-3.79-1.68-5.01,0-1.52.27-3.66,1.71-5.14,1.34-1.39,2.91-1.59,4.35-1.59,2.02,0,3.12.41,3.7.78.82.51,1.54,1.39,1.61,2.78h3.97c-.03-1.42-.45-3.28-2.67-4.74-1.95-1.25-4.39-1.46-6.54-1.46-2.57,0-5.52.24-7.81,2.5-2.12,2.1-2.5,4.81-2.5,6.94,0,1.76.31,4.6,2.36,6.63,2.12,2.1,5.17,2.4,7.61,2.4,3.29,0,6.03-.24,7.91-2.2.89-.91,1.82-2.44,1.78-4.67h-4.04Z"></path>
    </g>
  </g>
</svg>
