<?xml version="1.0" encoding="utf-8"?>
<svg version="1.0" width="67px" height="35px" viewBox="0 0 67 35" preserveAspectRatio="xMidYMid meet" xmlns="http://www.w3.org/2000/svg">
  <g transform="translate(0.000000,334.000000) scale(0.100000,-0.100000)" fill="#000000" stroke="none"/>
  <path d="M 4.224 11.661 L 14.052 4.842 C 14.243 4.709 14.476 4.631 14.727 4.631 C 15.37 4.631 15.891 5.14 15.891 5.767 C 15.891 6.18 15.665 6.542 15.327 6.741 L 5.996 13.235 L 5.996 21.774 L 13.907 27.224 C 13.907 27.224 13.898 19.538 13.898 19.491 C 13.898 19.096 14.108 18.749 14.424 18.549 L 14.423 18.547 L 24.18 11.791 L 24.182 11.792 C 24.37 11.661 24.602 11.584 24.851 11.584 C 25.49 11.584 26.007 12.087 26.007 12.706 C 26.007 12.781 25.993 23.206 25.993 23.251 C 25.993 23.871 25.476 24.373 24.838 24.373 C 24.2 24.373 23.683 23.871 23.683 23.251 C 23.683 23.217 23.687 14.887 23.687 14.887 L 16.205 20.068 C 16.205 20.068 16.306 28.426 16.208 29.081 C 16.176 29.302 16.096 29.539 15.956 29.737 C 15.853 29.882 15.681 30.053 15.467 30.176 C 15.254 30.298 14.999 30.373 14.817 30.368 C 14.552 30.361 14.307 30.282 14.111 30.139 L 4.261 23.355 C 3.921 23.156 3.694 22.797 3.694 22.386 C 3.694 22.308 3.695 12.665 3.695 12.635 C 3.695 12.236 3.905 11.863 4.224 11.661 Z" style="stroke: rgb(0, 0, 0); paint-order: fill; stroke-miterlimit: 1; stroke-width: 0px; fill: rgb(141, 198, 63);"/>
  <path id="path0" d="M 34.575 8.812 C 33.701 8.854 32.564 8.997 31.696 9.174 C 31.629 9.187 31.499 9.213 31.407 9.23 C 31.316 9.248 31.125 9.287 30.983 9.317 L 30.725 9.37 L 30.717 16.572 C 30.712 20.532 30.716 23.803 30.725 23.841 L 30.742 23.909 L 32.265 23.901 L 33.788 23.893 L 33.803 21.15 C 33.812 19.641 33.822 18.402 33.826 18.397 C 33.845 18.373 35.927 18.415 36.034 18.441 C 36.466 18.547 36.678 18.758 37.028 19.428 C 37.118 19.6 37.225 19.801 37.266 19.876 C 37.308 19.951 37.414 20.149 37.502 20.316 C 37.59 20.483 37.699 20.687 37.744 20.771 C 37.79 20.854 37.932 21.125 38.06 21.372 C 38.188 21.62 38.345 21.92 38.408 22.039 C 38.472 22.159 38.596 22.393 38.684 22.559 C 39.38 23.879 39.442 23.907 41.693 23.908 C 42.93 23.909 43.05 23.904 43.05 23.859 C 43.05 23.816 42.804 23.325 42.428 22.62 C 42.145 22.088 42.029 21.869 41.86 21.544 C 41.759 21.352 41.599 21.045 41.504 20.861 C 41.408 20.678 41.276 20.426 41.209 20.301 C 41.142 20.176 41.009 19.923 40.913 19.74 C 40.518 18.987 40.329 18.642 40.25 18.527 C 40.148 18.379 39.952 18.212 39.798 18.142 C 39.617 18.06 39.618 18.047 39.814 17.997 C 39.989 17.952 39.973 17.959 40.291 17.799 C 41.121 17.382 41.878 16.403 42.143 15.404 C 42.285 14.866 42.299 14.791 42.382 14.167 C 42.452 13.64 42.403 12.774 42.277 12.317 C 42.253 12.23 42.226 12.126 42.215 12.084 C 42.205 12.043 42.185 11.981 42.171 11.948 C 42.157 11.914 42.125 11.83 42.098 11.76 C 41.702 10.695 40.665 9.749 39.397 9.295 C 39.297 9.259 39.187 9.218 39.154 9.204 C 39.093 9.178 38.68 9.067 38.456 9.015 C 37.51 8.799 36.232 8.733 34.575 8.812 M 44.755 16.427 L 44.763 23.893 L 45.688 23.903 C 47.157 23.918 47.434 23.85 47.653 23.418 C 47.778 23.171 47.78 23.112 47.78 18.418 C 47.78 13.43 47.768 13.726 47.956 14.065 C 48.003 14.151 48.081 14.29 48.128 14.373 C 48.239 14.569 48.316 14.704 48.411 14.874 C 48.453 14.948 48.51 15.051 48.539 15.101 C 48.568 15.151 48.641 15.278 48.701 15.384 C 48.761 15.49 48.81 15.589 48.81 15.604 C 48.81 15.619 48.821 15.631 48.833 15.632 C 48.846 15.632 48.871 15.663 48.889 15.7 C 48.907 15.737 49.069 16.027 49.249 16.344 C 49.429 16.661 49.611 16.982 49.653 17.056 C 49.695 17.132 49.757 17.241 49.79 17.299 C 49.823 17.358 49.884 17.466 49.927 17.542 C 50.016 17.701 50.044 17.75 50.297 18.193 C 50.402 18.377 50.522 18.589 50.564 18.664 C 50.606 18.738 50.665 18.844 50.696 18.898 C 50.726 18.952 50.78 19.048 50.815 19.111 C 50.85 19.173 50.889 19.238 50.902 19.255 C 50.914 19.271 50.961 19.35 51.005 19.429 C 51.174 19.735 51.242 19.855 51.541 20.376 C 51.645 20.56 51.772 20.785 51.822 20.877 C 51.873 20.968 51.945 21.095 51.984 21.157 C 52.023 21.219 52.055 21.275 52.055 21.281 C 52.055 21.288 52.146 21.449 52.256 21.638 C 52.366 21.828 52.511 22.086 52.579 22.211 C 52.646 22.336 52.726 22.475 52.757 22.519 C 52.788 22.563 52.813 22.609 52.813 22.621 C 52.813 22.632 52.861 22.707 52.919 22.787 C 52.978 22.867 53.025 22.947 53.025 22.965 C 53.025 22.984 53.036 22.999 53.049 22.999 C 53.062 22.999 53.095 23.036 53.122 23.083 C 53.51 23.738 54.088 23.907 55.944 23.908 L 56.936 23.909 L 56.936 16.435 L 56.936 8.961 L 55.807 8.961 C 54.363 8.962 54.182 9.011 53.984 9.455 C 53.876 9.698 53.874 9.776 53.874 14.387 C 53.874 16.976 53.863 18.936 53.847 18.936 C 53.8 18.936 53.762 18.875 53.502 18.391 C 53.434 18.266 53.37 18.149 53.357 18.133 C 53.344 18.116 53.29 18.02 53.236 17.92 C 53.041 17.561 52.988 17.465 52.966 17.436 C 52.954 17.419 52.889 17.303 52.821 17.177 C 52.754 17.052 52.668 16.896 52.63 16.829 C 52.593 16.763 52.528 16.646 52.486 16.572 C 52.445 16.496 52.4 16.421 52.387 16.404 C 52.374 16.388 52.32 16.293 52.266 16.192 C 52.157 15.992 52.066 15.827 51.944 15.608 C 51.899 15.529 51.837 15.417 51.804 15.358 C 51.772 15.3 51.735 15.239 51.723 15.222 C 51.71 15.206 51.645 15.089 51.578 14.964 C 51.511 14.839 51.425 14.683 51.387 14.616 C 51.35 14.549 51.284 14.433 51.242 14.358 C 51.162 14.214 51.093 14.093 50.995 13.919 C 50.962 13.862 50.884 13.722 50.823 13.609 C 50.761 13.496 50.679 13.352 50.64 13.29 C 50.601 13.228 50.569 13.171 50.569 13.164 C 50.569 13.157 50.52 13.064 50.459 12.959 C 50.398 12.853 50.301 12.677 50.242 12.569 C 50.183 12.461 50.11 12.336 50.079 12.291 C 50.049 12.247 50.024 12.205 50.024 12.197 C 50.024 12.189 49.819 11.818 49.569 11.372 C 49.319 10.926 49.114 10.554 49.114 10.546 C 49.114 10.48 48.545 9.693 48.373 9.523 C 48.083 9.235 47.894 9.138 47.336 8.994 C 47.258 8.973 46.753 8.961 45.98 8.961 L 44.748 8.961 L 44.755 16.427 M 60.832 9.025 C 60.641 9.097 60.554 9.161 60.432 9.322 C 60.245 9.565 60.256 9.079 60.256 16.799 L 60.256 23.893 L 61.181 23.903 C 62.613 23.919 62.9 23.858 63.148 23.486 C 63.295 23.265 63.286 23.694 63.296 16.079 L 63.305 8.961 L 62.144 8.964 C 61.083 8.967 60.971 8.972 60.832 9.025 M 36.956 11.375 C 37.302 11.425 37.332 11.433 37.711 11.555 C 38.84 11.92 39.379 12.754 39.261 13.955 C 39.22 14.385 39.159 14.621 39.018 14.915 C 38.8 15.366 38.351 15.69 37.774 15.813 C 37.509 15.87 37.376 15.874 35.662 15.874 L 33.833 15.874 L 33.833 13.707 C 33.833 11.297 33.817 11.477 34.027 11.477 C 34.069 11.477 34.134 11.465 34.173 11.451 C 34.505 11.32 36.256 11.273 36.956 11.375" stroke="none" fill-rule="evenodd" style="fill: rgb(255, 255, 255);"/>
</svg>